<svg width="24" height="22" viewBox="0 0 24 22" fill="none" xmlns="http://www.w3.org/2000/svg">
<path d="M16.5001 7.19901V5.00001H7.50008C6.47897 4.99991 5.47473 5.26041 4.58243 5.75685C3.69012 6.25329 2.93928 6.96924 2.40097 7.83693C1.86267 8.70462 1.55471 9.69533 1.50626 10.7153C1.4578 11.7352 1.67045 12.7507 2.12408 13.6655C2.16801 13.7538 2.19412 13.8498 2.20093 13.9481C2.20775 14.0465 2.19512 14.1452 2.16378 14.2387C2.13244 14.3321 2.083 14.4185 2.01828 14.4928C1.95356 14.5672 1.87483 14.6281 1.78658 14.672C1.69833 14.7159 1.60229 14.742 1.50395 14.7489C1.40561 14.7557 1.30689 14.743 1.21343 14.7117C1.11997 14.6804 1.03359 14.6309 0.95924 14.5662C0.884885 14.5015 0.824006 14.4228 0.780079 14.3345C0.212439 13.1909 -0.0538583 11.9213 0.00640834 10.646C0.066675 9.37066 0.451511 8.13184 1.12447 7.04685C1.79742 5.96186 2.73621 5.06663 3.85193 4.44594C4.96764 3.82525 6.22334 3.49966 7.50008 3.50001H16.5001V1.30101C16.5001 1.22975 16.5204 1.15998 16.5587 1.09986C16.5969 1.03974 16.6515 0.99176 16.716 0.961541C16.7806 0.931322 16.8524 0.920114 16.923 0.929228C16.9937 0.938343 17.0603 0.967404 17.1151 1.01301L20.6551 3.96201C20.8351 4.11201 20.8351 4.38801 20.6551 4.53801L17.1151 7.48701C17.0603 7.53261 16.9937 7.56167 16.923 7.57079C16.8524 7.5799 16.7806 7.56869 16.716 7.53847C16.6515 7.50825 16.5969 7.46028 16.5587 7.40016C16.5204 7.34004 16.5001 7.27026 16.5001 7.19901ZM22.2151 7.32801C22.3931 7.23959 22.599 7.22547 22.7874 7.28875C22.9759 7.35204 23.1315 7.48755 23.2201 7.66551C23.7877 8.80912 24.054 10.0787 23.9937 11.354C23.9335 12.6294 23.5486 13.8682 22.8757 14.9532C22.2027 16.0382 21.2639 16.9334 20.1482 17.5541C19.0325 18.1748 17.7768 18.5004 16.5001 18.5H7.50008V20.699C7.50005 20.7703 7.47972 20.84 7.44148 20.9002C7.40323 20.9603 7.34864 21.0083 7.28411 21.0385C7.21958 21.0687 7.14778 21.0799 7.07711 21.0708C7.00644 21.0617 6.93983 21.0326 6.88508 20.987L3.34508 18.038C3.30288 18.0028 3.26892 17.9588 3.24562 17.909C3.22232 17.8592 3.21025 17.805 3.21025 17.75C3.21025 17.6951 3.22232 17.6408 3.24562 17.591C3.26892 17.5412 3.30288 17.4972 3.34508 17.462L6.88508 14.513C6.93983 14.4674 7.00644 14.4383 7.07711 14.4292C7.14778 14.4201 7.21958 14.4313 7.28411 14.4615C7.34864 14.4918 7.40323 14.5397 7.44148 14.5999C7.47972 14.66 7.50005 14.7298 7.50008 14.801V17H16.5001C17.5213 17.0004 18.5257 16.74 19.4182 16.2437C20.3108 15.7474 21.0618 15.0315 21.6003 14.1637C22.1388 13.296 22.4469 12.3052 22.4954 11.2851C22.5439 10.265 22.3313 9.24943 21.8776 8.33451C21.7892 8.15646 21.775 7.9506 21.8383 7.76216C21.9016 7.57371 22.0371 7.41659 22.2151 7.32801Z" fill="#1B281B"/>
</svg>
